<svg width="20" height="11" viewBox="0 0 20 11" fill="none" xmlns="http://www.w3.org/2000/svg">
<path d="M6.55622 9.19728L2.4863 5.74717L6.55622 2.29706C6.96321 1.95205 6.96321 1.40357 6.55622 1.05856C6.14923 0.713552 5.50222 0.713552 5.09523 1.05856L0.305244 5.11908C-0.101748 5.46409 -0.101748 6.02141 0.305244 6.36642L5.09523 10.4358C5.50222 10.7808 6.14923 10.7808 6.55622 10.4358C6.96321 10.0908 6.96321 9.54229 6.55622 9.19728ZM13.4438 9.19728L17.5137 5.74717L13.4438 2.29706C13.0368 1.95205 13.0368 1.40357 13.4438 1.05856C13.8508 0.713552 14.4978 0.713552 14.9048 1.05856L19.6948 5.11908C20.1017 5.46409 20.1017 6.02141 19.6948 6.36642L14.9048 10.4358C14.4978 10.7808 13.8508 10.7808 13.4438 10.4358C13.0368 10.0908 13.0368 9.54229 13.4438 9.19728Z" fill="#DCE2F9"/>
</svg>
