<svg width="31" height="16" viewBox="0 0 31 16" fill="none" xmlns="http://www.w3.org/2000/svg">
<path d="M15.5 8.71875C17.6054 8.71875 19.4654 9.2225 20.9767 9.88125C22.3717 10.5012 23.25 11.8962 23.25 13.4075V14.2083C23.25 14.9187 22.6687 15.5 21.9583 15.5H9.04167C8.33125 15.5 7.75 14.9187 7.75 14.2083V13.4204C7.75 11.8962 8.62833 10.5012 10.0233 9.89417C11.5346 9.2225 13.3946 8.71875 15.5 8.71875ZM5.16667 9.04167C6.5875 9.04167 7.75 7.87917 7.75 6.45833C7.75 5.0375 6.5875 3.875 5.16667 3.875C3.74583 3.875 2.58333 5.0375 2.58333 6.45833C2.58333 7.87917 3.74583 9.04167 5.16667 9.04167ZM6.62625 10.4625C6.14833 10.385 5.67042 10.3333 5.16667 10.3333C3.88792 10.3333 2.67375 10.6046 1.57583 11.0825C0.62 11.4958 0 12.4258 0 13.4721V14.2083C0 14.9187 0.58125 15.5 1.29167 15.5H5.8125V13.4204C5.8125 12.3483 6.10958 11.3408 6.62625 10.4625ZM25.8333 9.04167C27.2542 9.04167 28.4167 7.87917 28.4167 6.45833C28.4167 5.0375 27.2542 3.875 25.8333 3.875C24.4125 3.875 23.25 5.0375 23.25 6.45833C23.25 7.87917 24.4125 9.04167 25.8333 9.04167ZM31 13.4721C31 12.4258 30.38 11.4958 29.4242 11.0825C28.3263 10.6046 27.1121 10.3333 25.8333 10.3333C25.3296 10.3333 24.8517 10.385 24.3738 10.4625C24.8904 11.3408 25.1875 12.3483 25.1875 13.4204V15.5H29.7083C30.4187 15.5 31 14.9187 31 14.2083V13.4721ZM15.5 0C17.6442 0 19.375 1.73083 19.375 3.875C19.375 6.01917 17.6442 7.75 15.5 7.75C13.3558 7.75 11.625 6.01917 11.625 3.875C11.625 1.73083 13.3558 0 15.5 0Z" fill="#DCE2F9"/>
</svg>
