<svg width="67" height="53" viewBox="0 0 67 53" fill="none" xmlns="http://www.w3.org/2000/svg">
<g clip-path="url(#clip0_5182_7016)">
<path d="M56.875 34.75C59.2958 34.75 61.2354 32.7958 61.2354 30.375C61.2354 27.9542 59.2958 26 56.875 26C54.4542 26 52.5 27.9542 52.5 30.375C52.5 32.7958 54.4542 34.75 56.875 34.75ZM45.2083 34.75C47.6292 34.75 49.5687 32.7958 49.5687 30.375C49.5687 27.9542 47.6292 26 45.2083 26C42.7875 26 40.8333 27.9542 40.8333 30.375C40.8333 32.7958 42.7875 34.75 45.2083 34.75ZM45.2083 37.6667C41.8104 37.6667 35 39.3729 35 42.7708V44.9583C35 45.7604 35.6562 46.4167 36.4583 46.4167H53.9583C54.7604 46.4167 55.4167 45.7604 55.4167 44.9583V42.7708C55.4167 39.3729 48.6062 37.6667 45.2083 37.6667ZM56.875 37.6667C56.4521 37.6667 55.9708 37.6958 55.4604 37.7396C55.4896 37.7542 55.5042 37.7833 55.5187 37.7979C57.1812 39.0083 58.3333 40.6271 58.3333 42.7708V44.9583C58.3333 45.4688 58.2312 45.9646 58.0708 46.4167H65.625C66.4271 46.4167 67.0833 45.7604 67.0833 44.9583V42.7708C67.0833 39.3729 60.2729 37.6667 56.875 37.6667Z" fill="#DCE2F9"/>
</g>
<path d="M21.875 34.75C24.2958 34.75 26.2354 32.7958 26.2354 30.375C26.2354 27.9542 24.2958 26 21.875 26C19.4542 26 17.5 27.9542 17.5 30.375C17.5 32.7958 19.4542 34.75 21.875 34.75ZM10.2083 34.75C12.6292 34.75 14.5687 32.7958 14.5687 30.375C14.5687 27.9542 12.6292 26 10.2083 26C7.7875 26 5.83333 27.9542 5.83333 30.375C5.83333 32.7958 7.7875 34.75 10.2083 34.75ZM10.2083 37.6667C6.81042 37.6667 0 39.3729 0 42.7708V44.9583C0 45.7604 0.65625 46.4167 1.45833 46.4167H18.9583C19.7604 46.4167 20.4167 45.7604 20.4167 44.9583V42.7708C20.4167 39.3729 13.6062 37.6667 10.2083 37.6667ZM21.875 37.6667C21.4521 37.6667 20.9708 37.6958 20.4604 37.7396C20.4896 37.7542 20.5042 37.7833 20.5187 37.7979C22.1812 39.0083 23.3333 40.6271 23.3333 42.7708V44.9583C23.3333 45.4688 23.2312 45.9646 23.0708 46.4167H30.625C31.4271 46.4167 32.0833 45.7604 32.0833 44.9583V42.7708C32.0833 39.3729 25.2729 37.6667 21.875 37.6667Z" fill="#DCE2F9"/>
<path d="M33.2083 8.75C35.6292 8.75 37.5687 6.79583 37.5687 4.375C37.5687 1.95417 35.6292 0 33.2083 0C30.7875 0 28.8333 1.95417 28.8333 4.375C28.8333 6.79583 30.7875 8.75 33.2083 8.75ZM33.2083 11.6667C29.8104 11.6667 23 13.3729 23 16.7708V18.9583C23 19.7604 23.6562 20.4167 24.4583 20.4167H41.9583C42.7604 20.4167 43.4167 19.7604 43.4167 18.9583V16.7708C43.4167 13.3729 36.6062 11.6667 33.2083 11.6667Z" fill="#DCE2F9"/>
<defs>
<clipPath id="clip0_5182_7016">
<rect width="35" height="35" fill="white" transform="translate(32 18)"/>
</clipPath>
</defs>
</svg>
