<svg width="20" height="17" viewBox="0 0 20 17" fill="none" xmlns="http://www.w3.org/2000/svg">
<path d="M8.67 9.02C8.45 9.01 8.23 9 8 9C5.58 9 3.32 9.67 1.39 10.82C0.51 11.34 0 12.32 0 13.35V15C0 15.55 0.45 16 1 16H9.26C8.47 14.87 8 13.49 8 12C8 10.93 8.25 9.93 8.67 9.02Z" fill="#DCE2F9"/>
<path d="M8 8C10.2091 8 12 6.20914 12 4C12 1.79086 10.2091 0 8 0C5.79086 0 4 1.79086 4 4C4 6.20914 5.79086 8 8 8Z" fill="#DCE2F9"/>
<path d="M18.7499 11.9998C18.7499 11.7798 18.7199 11.5798 18.6899 11.3698L19.5299 10.6398C19.7099 10.4798 19.7499 10.2198 19.6299 10.0098L19.0399 8.98977C18.9199 8.77977 18.6699 8.68977 18.4499 8.76977L17.3899 9.12977C17.0699 8.85977 16.7099 8.64977 16.3099 8.49977L16.0899 7.40977C16.0399 7.17977 15.8399 7.00977 15.5999 7.00977H14.4199C14.1799 7.00977 13.9799 7.17977 13.9299 7.40977L13.7099 8.49977C13.3099 8.64977 12.9499 8.85977 12.6299 9.12977L11.5699 8.76977C11.3399 8.68977 11.0999 8.78977 10.9799 8.98977L10.3899 10.0098C10.2699 10.2198 10.3099 10.4798 10.4899 10.6398L11.3299 11.3698C11.2999 11.5798 11.2699 11.7798 11.2699 11.9998C11.2699 12.2198 11.2999 12.4198 11.3299 12.6298L10.4899 13.3598C10.3099 13.5198 10.2699 13.7798 10.3899 13.9898L10.9799 15.0098C11.0999 15.2198 11.3499 15.3098 11.5699 15.2298L12.6299 14.8698C12.9499 15.1398 13.3099 15.3498 13.7099 15.4998L13.9299 16.5898C13.9799 16.8198 14.1799 16.9898 14.4199 16.9898H15.5999C15.8399 16.9898 16.0399 16.8198 16.0899 16.5898L16.3099 15.4998C16.7099 15.3498 17.0699 15.1398 17.3899 14.8698L18.4499 15.2298C18.6799 15.3098 18.9199 15.2098 19.0399 15.0098L19.6299 13.9898C19.7499 13.7798 19.7099 13.5198 19.5299 13.3598L18.6899 12.6298C18.7199 12.4198 18.7499 12.2198 18.7499 11.9998ZM14.9999 13.9998C13.8999 13.9998 12.9999 13.0998 12.9999 11.9998C12.9999 10.8998 13.8999 9.99977 14.9999 9.99977C16.0999 9.99977 16.9999 10.8998 16.9999 11.9998C16.9999 13.0998 16.0999 13.9998 14.9999 13.9998Z" fill="#DCE2F9"/>
</svg>
