<svg width="84" height="48" viewBox="0 0 84 48" fill="none" xmlns="http://www.w3.org/2000/svg">
<path d="M20.5 11.5312C23.2846 11.5312 25.7446 12.1975 27.7433 13.0687C29.5883 13.8888 30.75 15.7337 30.75 17.7325V18.7917C30.75 19.7313 29.9813 20.5 29.0417 20.5H11.9583C11.0188 20.5 10.25 19.7313 10.25 18.7917V17.7496C10.25 15.7337 11.4117 13.8888 13.2567 13.0858C15.2554 12.1975 17.7154 11.5312 20.5 11.5312ZM6.83333 11.9583C8.7125 11.9583 10.25 10.4208 10.25 8.54167C10.25 6.6625 8.7125 5.125 6.83333 5.125C4.95417 5.125 3.41667 6.6625 3.41667 8.54167C3.41667 10.4208 4.95417 11.9583 6.83333 11.9583ZM8.76375 13.8375C8.13167 13.735 7.49958 13.6667 6.83333 13.6667C5.14208 13.6667 3.53625 14.0254 2.08417 14.6575C0.82 15.2042 0 16.4342 0 17.8179V18.7917C0 19.7313 0.76875 20.5 1.70833 20.5H7.6875V17.7496C7.6875 16.3317 8.08042 14.9992 8.76375 13.8375ZM34.1667 11.9583C36.0458 11.9583 37.5833 10.4208 37.5833 8.54167C37.5833 6.6625 36.0458 5.125 34.1667 5.125C32.2875 5.125 30.75 6.6625 30.75 8.54167C30.75 10.4208 32.2875 11.9583 34.1667 11.9583ZM41 17.8179C41 16.4342 40.18 15.2042 38.9158 14.6575C37.4638 14.0254 35.8579 13.6667 34.1667 13.6667C33.5004 13.6667 32.8683 13.735 32.2363 13.8375C32.9196 14.9992 33.3125 16.3317 33.3125 17.7496V20.5H39.2917C40.2313 20.5 41 19.7313 41 18.7917V17.8179ZM20.5 0C23.3358 0 25.625 2.28917 25.625 5.125C25.625 7.96083 23.3358 10.25 20.5 10.25C17.6642 10.25 15.375 7.96083 15.375 5.125C15.375 2.28917 17.6642 0 20.5 0Z" fill="#DCE2F9"/>
<path d="M20.5 38.5312C23.2846 38.5312 25.7446 39.1975 27.7433 40.0687C29.5883 40.8888 30.75 42.7337 30.75 44.7325V45.7917C30.75 46.7313 29.9813 47.5 29.0417 47.5H11.9583C11.0188 47.5 10.25 46.7313 10.25 45.7917V44.7496C10.25 42.7337 11.4117 40.8888 13.2567 40.0858C15.2554 39.1975 17.7154 38.5312 20.5 38.5312ZM6.83333 38.9583C8.7125 38.9583 10.25 37.4208 10.25 35.5417C10.25 33.6625 8.7125 32.125 6.83333 32.125C4.95417 32.125 3.41667 33.6625 3.41667 35.5417C3.41667 37.4208 4.95417 38.9583 6.83333 38.9583ZM8.76375 40.8375C8.13167 40.735 7.49958 40.6667 6.83333 40.6667C5.14208 40.6667 3.53625 41.0254 2.08417 41.6575C0.82 42.2042 0 43.4342 0 44.8179V45.7917C0 46.7313 0.76875 47.5 1.70833 47.5H7.6875V44.7496C7.6875 43.3317 8.08042 41.9992 8.76375 40.8375ZM34.1667 38.9583C36.0458 38.9583 37.5833 37.4208 37.5833 35.5417C37.5833 33.6625 36.0458 32.125 34.1667 32.125C32.2875 32.125 30.75 33.6625 30.75 35.5417C30.75 37.4208 32.2875 38.9583 34.1667 38.9583ZM41 44.8179C41 43.4342 40.18 42.2042 38.9158 41.6575C37.4638 41.0254 35.8579 40.6667 34.1667 40.6667C33.5004 40.6667 32.8683 40.735 32.2363 40.8375C32.9196 41.9992 33.3125 43.3317 33.3125 44.7496V47.5H39.2917C40.2313 47.5 41 46.7313 41 45.7917V44.8179ZM20.5 27C23.3358 27 25.625 29.2892 25.625 32.125C25.625 34.9608 23.3358 37.25 20.5 37.25C17.6642 37.25 15.375 34.9608 15.375 32.125C15.375 29.2892 17.6642 27 20.5 27Z" fill="#DCE2F9"/>
<path d="M63.5 11.5312C66.2846 11.5312 68.7446 12.1975 70.7433 13.0687C72.5883 13.8888 73.75 15.7337 73.75 17.7325V18.7917C73.75 19.7313 72.9813 20.5 72.0417 20.5H54.9583C54.0188 20.5 53.25 19.7313 53.25 18.7917V17.7496C53.25 15.7337 54.4117 13.8888 56.2567 13.0858C58.2554 12.1975 60.7154 11.5312 63.5 11.5312ZM49.8333 11.9583C51.7125 11.9583 53.25 10.4208 53.25 8.54167C53.25 6.6625 51.7125 5.125 49.8333 5.125C47.9542 5.125 46.4167 6.6625 46.4167 8.54167C46.4167 10.4208 47.9542 11.9583 49.8333 11.9583ZM51.7638 13.8375C51.1317 13.735 50.4996 13.6667 49.8333 13.6667C48.1421 13.6667 46.5363 14.0254 45.0842 14.6575C43.82 15.2042 43 16.4342 43 17.8179V18.7917C43 19.7313 43.7688 20.5 44.7083 20.5H50.6875V17.7496C50.6875 16.3317 51.0804 14.9992 51.7638 13.8375ZM77.1667 11.9583C79.0458 11.9583 80.5833 10.4208 80.5833 8.54167C80.5833 6.6625 79.0458 5.125 77.1667 5.125C75.2875 5.125 73.75 6.6625 73.75 8.54167C73.75 10.4208 75.2875 11.9583 77.1667 11.9583ZM84 17.8179C84 16.4342 83.18 15.2042 81.9158 14.6575C80.4638 14.0254 78.8579 13.6667 77.1667 13.6667C76.5004 13.6667 75.8683 13.735 75.2363 13.8375C75.9196 14.9992 76.3125 16.3317 76.3125 17.7496V20.5H82.2917C83.2313 20.5 84 19.7313 84 18.7917V17.8179ZM63.5 0C66.3358 0 68.625 2.28917 68.625 5.125C68.625 7.96083 66.3358 10.25 63.5 10.25C60.6642 10.25 58.375 7.96083 58.375 5.125C58.375 2.28917 60.6642 0 63.5 0Z" fill="#DCE2F9"/>
<path d="M63.5 38.5312C66.2846 38.5312 68.7446 39.1975 70.7433 40.0687C72.5883 40.8888 73.75 42.7337 73.75 44.7325V45.7917C73.75 46.7313 72.9813 47.5 72.0417 47.5H54.9583C54.0188 47.5 53.25 46.7313 53.25 45.7917V44.7496C53.25 42.7337 54.4117 40.8888 56.2567 40.0858C58.2554 39.1975 60.7154 38.5312 63.5 38.5312ZM49.8333 38.9583C51.7125 38.9583 53.25 37.4208 53.25 35.5417C53.25 33.6625 51.7125 32.125 49.8333 32.125C47.9542 32.125 46.4167 33.6625 46.4167 35.5417C46.4167 37.4208 47.9542 38.9583 49.8333 38.9583ZM51.7638 40.8375C51.1317 40.735 50.4996 40.6667 49.8333 40.6667C48.1421 40.6667 46.5363 41.0254 45.0842 41.6575C43.82 42.2042 43 43.4342 43 44.8179V45.7917C43 46.7313 43.7688 47.5 44.7083 47.5H50.6875V44.7496C50.6875 43.3317 51.0804 41.9992 51.7638 40.8375ZM77.1667 38.9583C79.0458 38.9583 80.5833 37.4208 80.5833 35.5417C80.5833 33.6625 79.0458 32.125 77.1667 32.125C75.2875 32.125 73.75 33.6625 73.75 35.5417C73.75 37.4208 75.2875 38.9583 77.1667 38.9583ZM84 44.8179C84 43.4342 83.18 42.2042 81.9158 41.6575C80.4638 41.0254 78.8579 40.6667 77.1667 40.6667C76.5004 40.6667 75.8683 40.735 75.2363 40.8375C75.9196 41.9992 76.3125 43.3317 76.3125 44.7496V47.5H82.2917C83.2313 47.5 84 46.7313 84 45.7917V44.8179ZM63.5 27C66.3358 27 68.625 29.2892 68.625 32.125C68.625 34.9608 66.3358 37.25 63.5 37.25C60.6642 37.25 58.375 34.9608 58.375 32.125C58.375 29.2892 60.6642 27 63.5 27Z" fill="#DCE2F9"/>
</svg>
