<svg width="67" height="63" viewBox="0 0 67 63" fill="none" xmlns="http://www.w3.org/2000/svg">
<g clip-path="url(#clip0_5182_7016)">
<path d="M56.875 44.75C59.2958 44.75 61.2354 42.7958 61.2354 40.375C61.2354 37.9542 59.2958 36 56.875 36C54.4542 36 52.5 37.9542 52.5 40.375C52.5 42.7958 54.4542 44.75 56.875 44.75ZM45.2083 44.75C47.6292 44.75 49.5687 42.7958 49.5687 40.375C49.5687 37.9542 47.6292 36 45.2083 36C42.7875 36 40.8333 37.9542 40.8333 40.375C40.8333 42.7958 42.7875 44.75 45.2083 44.75ZM45.2083 47.6667C41.8104 47.6667 35 49.3729 35 52.7708V54.9583C35 55.7604 35.6562 56.4167 36.4583 56.4167H53.9583C54.7604 56.4167 55.4167 55.7604 55.4167 54.9583V52.7708C55.4167 49.3729 48.6062 47.6667 45.2083 47.6667ZM56.875 47.6667C56.4521 47.6667 55.9708 47.6958 55.4604 47.7396C55.4896 47.7542 55.5042 47.7833 55.5187 47.7979C57.1812 49.0083 58.3333 50.6271 58.3333 52.7708V54.9583C58.3333 55.4688 58.2312 55.9646 58.0708 56.4167H65.625C66.4271 56.4167 67.0833 55.7604 67.0833 54.9583V52.7708C67.0833 49.3729 60.2729 47.6667 56.875 47.6667Z" fill="#DCE2F9"/>
</g>
<g clip-path="url(#clip1_5182_7016)">
<path d="M56.875 16.75C59.2958 16.75 61.2354 14.7958 61.2354 12.375C61.2354 9.95417 59.2958 8 56.875 8C54.4542 8 52.5 9.95417 52.5 12.375C52.5 14.7958 54.4542 16.75 56.875 16.75ZM45.2083 16.75C47.6292 16.75 49.5687 14.7958 49.5687 12.375C49.5687 9.95417 47.6292 8 45.2083 8C42.7875 8 40.8333 9.95417 40.8333 12.375C40.8333 14.7958 42.7875 16.75 45.2083 16.75ZM45.2083 19.6667C41.8104 19.6667 35 21.3729 35 24.7708V26.9583C35 27.7604 35.6562 28.4167 36.4583 28.4167H53.9583C54.7604 28.4167 55.4167 27.7604 55.4167 26.9583V24.7708C55.4167 21.3729 48.6062 19.6667 45.2083 19.6667ZM56.875 19.6667C56.4521 19.6667 55.9708 19.6958 55.4604 19.7396C55.4896 19.7542 55.5042 19.7833 55.5187 19.7979C57.1812 21.0083 58.3333 22.6271 58.3333 24.7708V26.9583C58.3333 27.4688 58.2312 27.9646 58.0708 28.4167H65.625C66.4271 28.4167 67.0833 27.7604 67.0833 26.9583V24.7708C67.0833 21.3729 60.2729 19.6667 56.875 19.6667Z" fill="#DCE2F9"/>
</g>
<path d="M21.875 44.75C24.2958 44.75 26.2354 42.7958 26.2354 40.375C26.2354 37.9542 24.2958 36 21.875 36C19.4542 36 17.5 37.9542 17.5 40.375C17.5 42.7958 19.4542 44.75 21.875 44.75ZM10.2083 44.75C12.6292 44.75 14.5687 42.7958 14.5687 40.375C14.5687 37.9542 12.6292 36 10.2083 36C7.7875 36 5.83333 37.9542 5.83333 40.375C5.83333 42.7958 7.7875 44.75 10.2083 44.75ZM10.2083 47.6667C6.81042 47.6667 0 49.3729 0 52.7708V54.9583C0 55.7604 0.65625 56.4167 1.45833 56.4167H18.9583C19.7604 56.4167 20.4167 55.7604 20.4167 54.9583V52.7708C20.4167 49.3729 13.6062 47.6667 10.2083 47.6667ZM21.875 47.6667C21.4521 47.6667 20.9708 47.6958 20.4604 47.7396C20.4896 47.7542 20.5042 47.7833 20.5187 47.7979C22.1812 49.0083 23.3333 50.6271 23.3333 52.7708V54.9583C23.3333 55.4688 23.2312 55.9646 23.0708 56.4167H30.625C31.4271 56.4167 32.0833 55.7604 32.0833 54.9583V52.7708C32.0833 49.3729 25.2729 47.6667 21.875 47.6667Z" fill="#DCE2F9"/>
<path d="M21.875 16.75C24.2958 16.75 26.2354 14.7958 26.2354 12.375C26.2354 9.95417 24.2958 8 21.875 8C19.4542 8 17.5 9.95417 17.5 12.375C17.5 14.7958 19.4542 16.75 21.875 16.75ZM10.2083 16.75C12.6292 16.75 14.5687 14.7958 14.5687 12.375C14.5687 9.95417 12.6292 8 10.2083 8C7.7875 8 5.83333 9.95417 5.83333 12.375C5.83333 14.7958 7.7875 16.75 10.2083 16.75ZM10.2083 19.6667C6.81042 19.6667 0 21.3729 0 24.7708V26.9583C0 27.7604 0.65625 28.4167 1.45833 28.4167H18.9583C19.7604 28.4167 20.4167 27.7604 20.4167 26.9583V24.7708C20.4167 21.3729 13.6062 19.6667 10.2083 19.6667ZM21.875 19.6667C21.4521 19.6667 20.9708 19.6958 20.4604 19.7396C20.4896 19.7542 20.5042 19.7833 20.5187 19.7979C22.1812 21.0083 23.3333 22.6271 23.3333 24.7708V26.9583C23.3333 27.4688 23.2312 27.9646 23.0708 28.4167H30.625C31.4271 28.4167 32.0833 27.7604 32.0833 26.9583V24.7708C32.0833 21.3729 25.2729 19.6667 21.875 19.6667Z" fill="#DCE2F9"/>
<defs>
<clipPath id="clip0_5182_7016">
<rect width="35" height="35" fill="white" transform="translate(32 28)"/>
</clipPath>
<clipPath id="clip1_5182_7016">
<rect width="35" height="35" fill="white" transform="translate(32)"/>
</clipPath>
</defs>
</svg>
