<svg width="67" height="55" viewBox="0 0 67 55" fill="none" xmlns="http://www.w3.org/2000/svg">
<g clip-path="url(#clip0_5182_7016)">
<path d="M56.875 36.75C59.2958 36.75 61.2354 34.7958 61.2354 32.375C61.2354 29.9542 59.2958 28 56.875 28C54.4542 28 52.5 29.9542 52.5 32.375C52.5 34.7958 54.4542 36.75 56.875 36.75ZM45.2083 36.75C47.6292 36.75 49.5687 34.7958 49.5687 32.375C49.5687 29.9542 47.6292 28 45.2083 28C42.7875 28 40.8333 29.9542 40.8333 32.375C40.8333 34.7958 42.7875 36.75 45.2083 36.75ZM45.2083 39.6667C41.8104 39.6667 35 41.3729 35 44.7708V46.9583C35 47.7604 35.6562 48.4167 36.4583 48.4167H53.9583C54.7604 48.4167 55.4167 47.7604 55.4167 46.9583V44.7708C55.4167 41.3729 48.6062 39.6667 45.2083 39.6667ZM56.875 39.6667C56.4521 39.6667 55.9708 39.6958 55.4604 39.7396C55.4896 39.7542 55.5042 39.7833 55.5187 39.7979C57.1812 41.0083 58.3333 42.6271 58.3333 44.7708V46.9583C58.3333 47.4688 58.2312 47.9646 58.0708 48.4167H65.625C66.4271 48.4167 67.0833 47.7604 67.0833 46.9583V44.7708C67.0833 41.3729 60.2729 39.6667 56.875 39.6667Z" fill="#DCE2F9"/>
</g>
<path d="M21.875 36.75C24.2958 36.75 26.2354 34.7958 26.2354 32.375C26.2354 29.9542 24.2958 28 21.875 28C19.4542 28 17.5 29.9542 17.5 32.375C17.5 34.7958 19.4542 36.75 21.875 36.75ZM10.2083 36.75C12.6292 36.75 14.5687 34.7958 14.5687 32.375C14.5687 29.9542 12.6292 28 10.2083 28C7.7875 28 5.83333 29.9542 5.83333 32.375C5.83333 34.7958 7.7875 36.75 10.2083 36.75ZM10.2083 39.6667C6.81042 39.6667 0 41.3729 0 44.7708V46.9583C0 47.7604 0.65625 48.4167 1.45833 48.4167H18.9583C19.7604 48.4167 20.4167 47.7604 20.4167 46.9583V44.7708C20.4167 41.3729 13.6062 39.6667 10.2083 39.6667ZM21.875 39.6667C21.4521 39.6667 20.9708 39.6958 20.4604 39.7396C20.4896 39.7542 20.5042 39.7833 20.5187 39.7979C22.1812 41.0083 23.3333 42.6271 23.3333 44.7708V46.9583C23.3333 47.4688 23.2312 47.9646 23.0708 48.4167H30.625C31.4271 48.4167 32.0833 47.7604 32.0833 46.9583V44.7708C32.0833 41.3729 25.2729 39.6667 21.875 39.6667Z" fill="#DCE2F9"/>
<path d="M40.875 8.75C43.2958 8.75 45.2354 6.79583 45.2354 4.375C45.2354 1.95417 43.2958 0 40.875 0C38.4542 0 36.5 1.95417 36.5 4.375C36.5 6.79583 38.4542 8.75 40.875 8.75ZM29.2083 8.75C31.6292 8.75 33.5687 6.79583 33.5687 4.375C33.5687 1.95417 31.6292 0 29.2083 0C26.7875 0 24.8333 1.95417 24.8333 4.375C24.8333 6.79583 26.7875 8.75 29.2083 8.75ZM29.2083 11.6667C25.8104 11.6667 19 13.3729 19 16.7708V18.9583C19 19.7604 19.6562 20.4167 20.4583 20.4167H37.9583C38.7604 20.4167 39.4167 19.7604 39.4167 18.9583V16.7708C39.4167 13.3729 32.6062 11.6667 29.2083 11.6667ZM40.875 11.6667C40.4521 11.6667 39.9708 11.6958 39.4604 11.7396C39.4896 11.7542 39.5042 11.7833 39.5187 11.7979C41.1812 13.0083 42.3333 14.6271 42.3333 16.7708V18.9583C42.3333 19.4688 42.2312 19.9646 42.0708 20.4167H49.625C50.4271 20.4167 51.0833 19.7604 51.0833 18.9583V16.7708C51.0833 13.3729 44.2729 11.6667 40.875 11.6667Z" fill="#DCE2F9"/>
<defs>
<clipPath id="clip0_5182_7016">
<rect width="35" height="35" fill="white" transform="translate(32 20)"/>
</clipPath>
</defs>
</svg>
