<svg width="18" height="28" viewBox="0 0 18 28" fill="none" xmlns="http://www.w3.org/2000/svg">
<path d="M11.1358 23.3349H6.55384V28H11.1358V23.3349Z" fill="#DCE2F9"/>
<path d="M0.093225 6.61033C1.35327 2.36506 5.52289 -0.597307 10.2423 0.102464C14.2287 0.708932 17.3674 4.13781 17.9172 8.19648C18.5358 12.6517 15.5575 14.3778 13.3581 16.5004C13.0832 16.757 12.8312 17.0136 12.6021 17.2935C12.5792 17.3168 12.5563 17.3635 12.5333 17.3868C12.3042 17.6667 12.0751 17.9699 11.8919 18.2965C11.846 18.3665 11.8231 18.4365 11.7773 18.5064C11.3878 19.2062 11.1358 20.0226 11.1358 21.0023H6.55384C6.55384 19.836 6.73712 18.8797 7.01204 18.0866C7.03495 18.0166 7.03495 17.9699 7.05786 17.9233C7.08077 17.8533 7.12659 17.8067 7.1495 17.7367C7.30987 17.3168 7.51606 16.9203 7.72225 16.5704C7.74516 16.5238 7.76807 16.5004 7.79098 16.4538C7.79098 16.4305 7.81389 16.4305 7.81389 16.4071C9.71542 13.4914 13.1977 12.815 13.4268 9.68933C13.6101 7.42673 12.0064 5.25744 9.82997 4.79093C7.47024 4.27776 5.29379 5.70063 4.56067 7.77662C4.23993 8.66299 3.4839 9.33944 2.54459 9.33944H2.08639C0.688885 9.33944 -0.319155 7.96322 0.093225 6.61033Z" fill="#DCE2F9"/>
</svg>
